<svg xmlns="http://www.w3.org/2000/svg" viewBox="0 0 61.17 72.29">
  <path
    d="M2189.47,2174.42a4.32,4.32,0,0,0-3.17,1.3,4.26,4.26,0,0,0-1.3,3.13v18.68a4.48,4.48,0,0,0,7.63,3.17,4.36,4.36,0,0,0,1.28-3.17v-18.68a4.46,4.46,0,0,0-4.44-4.43Zm0,0"
    transform="translate(-2185 -2151)" />
  <path
    d="M2225.45,2157.65l3.08-5.69a.58.58,0,0,0-.21-.87.61.61,0,0,0-.88.26l-3.12,5.73a21.87,21.87,0,0,0-17.47,0l-3.12-5.73a.6.6,0,0,0-.87-.26.57.57,0,0,0-.22.87l3.09,5.69a18.94,18.94,0,0,0-7.48,6.67,16.85,16.85,0,0,0-2.78,9.36h40.19a16.78,16.78,0,0,0-2.79-9.36,19,19,0,0,0-7.42-6.67Zm-17.84,8.27a1.6,1.6,0,0,1-1.19.51,1.52,1.52,0,0,1-1.17-.51,1.64,1.64,0,0,1-.48-1.19,1.69,1.69,0,0,1,.48-1.2,1.55,1.55,0,0,1,1.17-.49,1.62,1.62,0,0,1,1.19.49,1.67,1.67,0,0,1,.5,1.2,1.63,1.63,0,0,1-.5,1.19Zm18.32,0a1.58,1.58,0,0,1-1.18.51,1.6,1.6,0,0,1-1.19-.51,1.58,1.58,0,0,1-.5-1.19,1.69,1.69,0,0,1,1.69-1.69,1.6,1.6,0,0,1,1.18.49,1.73,1.73,0,0,1,.47,1.2,1.69,1.69,0,0,1-.47,1.19Zm0,0"
    transform="translate(-2185 -2151)" />
  <path
    d="M2195.64,2204.18a4.76,4.76,0,0,0,4.78,4.78h3.22l0,9.86a4.36,4.36,0,0,0,1.3,3.17,4.29,4.29,0,0,0,3.13,1.3,4.44,4.44,0,0,0,4.48-4.47V2209h6v9.86a4.48,4.48,0,1,0,9,0V2209h3.26a4.73,4.73,0,0,0,4.73-4.78v-28.94h-39.88Zm0,0"
    transform="translate(-2185 -2151)" />
  <path
    d="M2241.69,2174.42a4.4,4.4,0,0,0-4.42,4.43v18.68a4.3,4.3,0,0,0,1.3,3.17,4.25,4.25,0,0,0,3.12,1.3,4.44,4.44,0,0,0,4.48-4.47v-18.68a4.24,4.24,0,0,0-1.3-3.15,4.34,4.34,0,0,0-3.18-1.28Zm0,0"
    transform="translate(-2185 -2151)" />
</svg>